<?xml version="1.0" standalone="no"?>
<!DOCTYPE svg PUBLIC "-//W3C//DTD SVG 20010904//EN"
 "http://www.w3.org/TR/2001/REC-SVG-20010904/DTD/svg10.dtd">
<svg version="1.0" xmlns="http://www.w3.org/2000/svg"
 width="527.000000pt" height="362.000000pt" viewBox="0 0 527.000000 362.000000"
 preserveAspectRatio="xMidYMid meet">
<g transform="translate(0.000000,362.000000) scale(0.100000,-0.100000)"
fill="#000000" stroke="none">
<path d="M360 3418 c-77 -30 -169 -123 -198 -201 l-22 -58 0 -1339 0 -1339 22
-58 c29 -80 121 -172 201 -201 l58 -22 2179 0 2179 0 58 22 c80 29 172 121
201 201 l22 58 0 1339 0 1339 -22 58 c-29 80 -121 172 -201 201 l-58 22 -2182
-1 -2182 0 -55 -21z m443 -587 c13 -5 390 -348 838 -762 583 -539 827 -758
859 -772 61 -27 144 -27 201 1 28 14 340 295 856 771 446 411 819 751 828 755
26 10 72 7 100 -6 52 -24 72 -108 37 -160 -9 -14 -219 -212 -465 -439 l-448
-412 28 -28 c15 -15 217 -194 448 -398 231 -205 430 -386 442 -403 44 -60 22
-139 -46 -168 -65 -27 -69 -24 -569 420 l-472 421 -278 -256 c-285 -262 -340
-303 -446 -331 -120 -32 -274 -8 -375 60 -28 19 -170 145 -315 281 l-265 246
-473 -421 c-500 -444 -504 -447 -569 -420 -68 29 -90 108 -46 168 12 17 224
210 470 428 l448 397 -38 38 c-21 20 -227 211 -458 424 -462 424 -466 429
-432 500 17 36 68 75 99 75 9 0 28 -4 41 -9z"/>
</g>
</svg>

